{"title":"Thor The Dark World (2013) Blurred Subtitles-BDM","uid":9545098,"size":965600388,"categoryP":"video","categoryS":"movies","magnet":"?xt=urn:btih:72a15e0b0986ed811bdf1a2d0a14564ef8881220&amp;dn=Thor+The+Dark+World+%282013%29+Blurred+Subtitles-BDM&amp;tr=udp%3A%2F%2Ftracker.openbittorrent.com%3A80&amp;tr=udp%3A%2F%2Fopen.demonii.com%3A1337&amp;tr=udp%3A%2F%2Ftracker.coppersurfer.tk%3A6969&amp;tr=udp%3A%2F%2Fexodus.desync.com%3A6969","seeders":3,"leechers":0,"uploader":"BigDogMoya","files":-1,"time":1391117741,"description":"This one came out pretty good but I did not spend too much time on it because the BluRay is going to be out soon, but for the people not wanting to wait here you go.\n\n\nTook this torrent and blurred the subtitles,\n &lt;a href=&quot;\nhttp://thepiratebay.se/torrent/9544387/Thor_The_Dark_World_2013_HDRip_X264_AAC-ViZNU_%5BP2PDL%5D&quot; rel=&quot;nofollow&quot; target=&quot;_NEW&quot;&gt;\nhttp://thepiratebay.se/torrent/9544387/Thor_The_Dark_World_2013_HDRip_X264_AAC-ViZNU_%5BP2PDL%5D&lt;/a&gt;\n\n   &lt;a href=&quot;\nhttp://www.imdb.com/title/tt1981115/&quot; rel=&quot;nofollow&quot; target=&quot;_NEW&quot;&gt;\nhttp://www.imdb.com/title/tt1981115/&lt;/a&gt;\n\n\nScreen Shots:\n   &lt;a href=&quot;\nhttp://i.imgur.com/ao8SqxK.png&quot; rel=&quot;nofollow&quot; target=&quot;_NEW&quot;&gt;\nhttp://i.imgur.com/ao8SqxK.png&lt;/a&gt;\n &lt;a href=&quot;\nhttp://i.imgur.com/9EmbKSg.png&quot; rel=&quot;nofollow&quot; target=&quot;_NEW&quot;&gt;\nhttp://i.imgur.com/9EmbKSg.png&lt;/a&gt;\n &lt;a href=&quot;\nhttp://i.imgur.com/q7pt27F.png&quot; rel=&quot;nofollow&quot; target=&quot;_NEW&quot;&gt;\nhttp://i.imgur.com/q7pt27F.png&lt;/a&gt;\n &lt;a href=&quot;\nhttp://i.imgur.com/wxazIR8.png&quot; rel=&quot;nofollow&quot; target=&quot;_NEW&quot;&gt;\nhttp://i.imgur.com/wxazIR8.png&lt;/a&gt;\n &lt;a href=&quot;\nhttp://i.imgur.com/rnyrmsu.png&quot; rel=&quot;nofollow&quot; target=&quot;_NEW&quot;&gt;\nhttp://i.imgur.com/rnyrmsu.png&lt;/a&gt;\n\n\nAlso included a sample, enjoy.\t\n\n\nVideo\nID                                       : 1\nFormat                                   : AVC\nFormat/Info                              : Advanced Video Codec\nFormat profile                           : &lt;a class=&quot;__cf_email__&quot; href=&quot;/cdn-cgi/l/email-protection&quot; data-cfemail=&quot;377f5e505f777b041907&quot;&gt;[email&amp;#160;protected]&lt;/a&gt;&lt;script cf-hash='f9e31' type=&quot;text/javascript&quot;&gt;\n/* &lt;![CDATA[ */!function(){try{var t=&quot;currentScript&quot;in document?document.currentScript:function(){for(var t=document.getElementsByTagName(&quot;script&quot;),e=t.length;e--;)if(t[e].getAttribute(&quot;cf-hash&quot;))return t[e]}();if(t&amp;&amp;t.previousSibling){var e,r,n,i,c=t.previousSibling,a=c.getAttribute(&quot;data-cfemail&quot;);if(a){for(e=&quot;&quot;,r=parseInt(a.substr(0,2),16),n=2;a.length-n;n+=2)i=parseInt(a.substr(n,2),16)^r,e+=String.fromCharCode(i);e=document.createTextNode(e),c.parentNode.replaceChild(e,c)}}}catch(u){}}();/* ]]&gt; */&lt;/script&gt;\nFormat settings, CABAC                   : Yes\nFormat settings, ReFrames                : 4 frames\nCodec ID                                 : avc1\nCodec ID/Info                            : Advanced Video Coding\nDuration                                 : 1h 51mn\nBit rate                                 : 695 Kbps\nMaximum bit rate                         : 3 359 Kbps\nWidth                                    : 656 pixels\nHeight                                   : 352 pixels\nDisplay aspect ratio                     : 1.85:1\nFrame rate mode                          : Constant\nFrame rate                               : 30.303 fps\nStandard                                 : NTSC\nColor space                              : YUV\nChroma subsampling                       : 4:2:0\nBit depth                                : 8 bits\nScan type                                : Progressive\nBits/(Pixel*Frame)                       : 0.099\nStream size                              : 555 MiB (61%)\nWriting library                          : x264 core 138 r2358M+r755[x86] release 1\n\n\nAudio\nID                                       : 2\nFormat                                   : AC-3\nFormat/Info                              : Audio Coding 3\nMode extension                           : CM (complete main)\nFormat settings, Endianness              : Big\nCodec ID                                 : ac-3\nDuration                                 : 1h 51mn\nBit rate mode                            : Constant\nBit rate                                 : 448 Kbps\nChannel(s)                               : 2 channels\nChannel positions                        : Front: L R\nSampling rate                            : 48.0 KHz\nBit depth                                : 16 bits\nCompression mode                         : Lossy\nStream size                              : 358 MiB (39%)\nEncoded date                             : UTC 2014-01-30 20:21:19\nTagged date                              : UTC 2014-01-30 20:21:19\n","torrent":{"xt":"urn:btih:72a15e0b0986ed811bdf1a2d0a14564ef8881220","amp;dn":"Thor+The+Dark+World+%282013%29+Blurred+Subtitles-BDM","amp;tr":["udp%3A%2F%2Ftracker.openbittorrent.com%3A80","udp%3A%2F%2Fopen.demonii.com%3A1337","udp%3A%2F%2Ftracker.coppersurfer.tk%3A6969","udp%3A%2F%2Fexodus.desync.com%3A6969"],"infoHash":"72a15e0b0986ed811bdf1a2d0a14564ef8881220","infoHashBuffer":{"type":"Buffer","data":[114,161,94,11,9,134,237,129,27,223,26,45,10,20,86,78,248,136,18,32]},"announce":[],"urlList":[]}}